<?xml version="1.0" standalone="no"?>
<!DOCTYPE svg PUBLIC "-//W3C//DTD SVG 20010904//EN"
 "http://www.w3.org/TR/2001/REC-SVG-20010904/DTD/svg10.dtd">
<svg version="1.0" xmlns="http://www.w3.org/2000/svg"
 width="23.000000pt" height="23.000000pt" viewBox="0 0 48.000000 48.000000"
 preserveAspectRatio="xMidYMid meet"><title>Music</title>

<g transform="translate(0.000000,48.000000) scale(0.100000,-0.100000)"
fill="#000000" stroke="none">
<path d="M140 428 c-25 -14 -58 -44 -75 -67 -27 -39 -30 -50 -30 -120 0 -68 3
-83 27 -119 40 -60 104 -94 177 -94 126 0 213 87 213 213 0 73 -34 137 -94
176 -59 40 -155 44 -218 11z m194 -32 c158 -93 90 -338 -94 -338 -182 0 -250
244 -94 338 54 33 132 33 188 0z"/>
<path d="M175 381 c-11 -5 -33 -23 -50 -41 -27 -29 -30 -37 -30 -100 0 -67 2
-71 36 -106 64 -63 154 -64 216 -1 63 62 62 152 -1 215 -31 31 -42 36 -93 39
-32 1 -67 -1 -78 -6z m88 -101 c26 -17 47 -35 47 -40 0 -12 -88 -70 -107 -70
-9 0 -13 19 -13 70 0 81 4 83 73 40z"/>
</g>
</svg>
    